<?xml version="1.0" standalone="no"?>
<!DOCTYPE svg PUBLIC "-//W3C//DTD SVG 20010904//EN"
 "http://www.w3.org/TR/2001/REC-SVG-20010904/DTD/svg10.dtd">
<svg version="1.0" xmlns="http://www.w3.org/2000/svg"
 width="512.000000pt" height="512.000000pt" viewBox="0 0 512.000000 512.000000"
 preserveAspectRatio="xMidYMid meet">

<g transform="translate(0.000000,512.000000) scale(0.100000,-0.100000)"
fill="#656565" stroke="none">
<path d="M3455 4259 c-836 -346 -1947 -805 -2469 -1021 -859 -355 -950 -395
-967 -422 -27 -44 -24 -80 9 -116 15 -17 280 -171 617 -360 325 -182 594 -335
599 -340 4 -4 97 -382 206 -839 211 -892 205 -872 272 -886 19 -5 40 -1 62 12
19 10 211 216 431 463 219 245 403 451 410 458 10 11 134 -55 673 -357 721
-405 710 -400 765 -346 13 14 29 44 35 68 6 23 239 980 517 2127 371 1526 505
2093 500 2117 -8 45 -47 73 -99 72 -30 -1 -443 -167 -1561 -630z m1370 169
c-2 -7 -196 -803 -430 -1768 -501 -2063 -466 -1920 -475 -1920 -13 0 -1712
957 -1712 965 0 7 2610 2735 2618 2735 2 0 1 -6 -1 -12z m-691 -155 c-66 -47
-726 -530 -1469 -1072 -742 -542 -1357 -985 -1365 -985 -18 0 -960 527 -954
534 7 6 3887 1609 3898 1610 4 0 -45 -39 -110 -87z m-65 -320 c-30 -32 -513
-537 -1074 -1122 -626 -652 -1026 -1077 -1036 -1100 -9 -20 -61 -228 -115
-464 -55 -235 -101 -427 -104 -427 -3 0 -70 273 -148 606 -120 506 -142 609
-130 620 14 14 2650 1942 2657 1943 2 1 -20 -25 -50 -56z m-1782 -2535 c90
-51 162 -95 161 -99 -5 -11 -502 -567 -509 -568 -4 -1 103 474 166 737 3 12 8
22 12 22 3 0 80 -41 170 -92z"/>
<path d="M835 1611 c-26 -16 -355 -345 -639 -638 -84 -86 -89 -94 -89 -134 0
-35 6 -48 32 -71 37 -33 83 -37 121 -10 14 10 184 177 378 373 l352 355 0 43
c0 84 -83 128 -155 82z"/>
<path d="M1020 1112 c-38 -5 -756 -727 -763 -767 -12 -69 50 -133 117 -121 24
5 110 85 394 369 252 252 364 371 370 392 11 43 5 70 -24 98 -26 26 -53 35
-94 29z"/>
</g>
</svg>
